<svg xmlns="http://www.w3.org/2000/svg" xmlns:xlink="http://www.w3.org/1999/xlink" width="229.16" height="268.128" viewBox="0 0 229.16 268.128">
  <defs>
    <clipPath id="clip-path">
      <rect id="Rectangle_57" data-name="Rectangle 57" width="179.16" height="218.128" fill="none"/>
    </clipPath>
  </defs>
  <g id="logo-bioequitable" transform="translate(13.838 13.948)">
    <rect id="Rectangle_56" data-name="Rectangle 56" width="229.16" height="268.128" transform="translate(-13.838 -13.948)" fill="#fff"/>
    <g id="Groupe_1" data-name="Groupe 1" transform="translate(11.162 11.052)" clip-path="url(#clip-path)">
      <path id="Tracé_1" data-name="Tracé 1" d="M70.921,136.906a2.86,2.86,0,0,0-1.016-.3,6.737,6.737,0,0,0-1.11-.078H66.12v4.191h3.565a3.99,3.99,0,0,0,1.11-.235,1.736,1.736,0,0,0,1.142-1.8,1.939,1.939,0,0,0-.281-1.11,1.814,1.814,0,0,0-.735-.641" transform="translate(13.553 53.31)" fill="#046a38"/>
      <path id="Tracé_2" data-name="Tracé 2" d="M99.072,111.888a2.687,2.687,0,0,0,.923-.391,2.235,2.235,0,0,0,.672-.7,2.063,2.063,0,0,0,.25-1.063,1.657,1.657,0,0,0-.344-1.11,2.079,2.079,0,0,0-.86-.641,4.268,4.268,0,0,0-1.126-.313,9.5,9.5,0,0,0-1.11,0H94.24v4.41h3.831a4.461,4.461,0,0,0,1-.109" transform="translate(29.406 37.028)" fill="#046a38"/>
      <path id="Tracé_3" data-name="Tracé 3" d="M48.21,120.987a6.052,6.052,0,0,0-1.892-1.282,6.255,6.255,0,0,0-4.691,0,6.02,6.02,0,0,0-3.128,3.127,5.88,5.88,0,0,0-.469,2.346,5.942,5.942,0,0,0,.469,2.361,6.13,6.13,0,0,0,1.282,1.892,5.978,5.978,0,0,0,8.476,0,5.863,5.863,0,0,0,1.282-1.892,5.942,5.942,0,0,0,.469-2.361,5.879,5.879,0,0,0-.469-2.346,5.771,5.771,0,0,0-1.282-1.908" transform="translate(-2.283 43.567)" fill="#046a38"/>
      <path id="Tracé_4" data-name="Tracé 4" d="M83.447,120.65l-2.377,6.02h4.785Z" transform="translate(21.982 44.358)" fill="#046a38"/>
      <path id="Tracé_5" data-name="Tracé 5" d="M98.306,106.668a2.642,2.642,0,0,0,.86-.36,1.767,1.767,0,0,0,.61-.657,1.907,1.907,0,0,0,.235-.985,1.673,1.673,0,0,0-.923-1.564,3.5,3.5,0,0,0-.938-.328,5.55,5.55,0,0,0-1-.094H94.24v4.144h3.128a4.1,4.1,0,0,0,.97-.109" transform="translate(29.406 34.227)" fill="#046a38"/>
      <path id="Tracé_6" data-name="Tracé 6" d="M110.632,106.353a7.162,7.162,0,0,0-.422,2.486,7.052,7.052,0,0,0,.422,2.5,5.722,5.722,0,0,0,1.22,1.986,5.818,5.818,0,0,0,1.908,1.3,6.786,6.786,0,0,0,4.957,0,5.817,5.817,0,0,0,1.908-1.3,5.972,5.972,0,0,0,1.22-1.986,7.054,7.054,0,0,0,.422-2.5,7.161,7.161,0,0,0-.422-2.486,5.817,5.817,0,0,0-1.22-1.986,5.582,5.582,0,0,0-1.908-1.3,6.787,6.787,0,0,0-4.957,0,5.536,5.536,0,0,0-3.128,3.284" transform="translate(38.409 34.182)" fill="#046a38"/>
      <path id="Tracé_7" data-name="Tracé 7" d="M98.816,124.665a4.537,4.537,0,0,0-1.142-.3,7.3,7.3,0,0,0-1.126,0H93.28v4.41h3.862a5.614,5.614,0,0,0,1.016-.109,2.581,2.581,0,0,0,.923-.391,2.453,2.453,0,0,0,.688-.7,2.11,2.11,0,0,0,.25-1.079,1.689,1.689,0,0,0-.344-1.11,2.22,2.22,0,0,0-.86-.641" transform="translate(28.865 46.441)" fill="#046a38"/>
      <path id="Tracé_8" data-name="Tracé 8" d="M38.5,81.686A41.378,41.378,0,0,0,17.7,74.54V92.054l20.8-7.24V81.686" transform="translate(-13.744 18.363)" fill="#ffb600"/>
      <path id="Tracé_9" data-name="Tracé 9" d="M44.862,102.259a53.856,53.856,0,0,1-6.13-18.5L17.7,91.094v31.6L53.182,110c-2.111-.344-5.27-1.97-8.319-7.819" transform="translate(-13.744 23.561)" fill="#ffb600"/>
      <path id="Tracé_10" data-name="Tracé 10" d="M61.162,63.239c2.111-1.47,4.378-2.94,6.74-4.394A96.828,96.828,0,0,0,17.69,41.8V54.982A88.039,88.039,0,0,1,56.237,66.945q2.221-1.814,4.926-3.706" transform="translate(-13.749 -0.095)" fill="#ffb600"/>
      <path id="Tracé_11" data-name="Tracé 11" d="M50.5,66.22c.766-.876,1.658-1.8,2.627-2.721A84.145,84.145,0,0,0,17.69,52.74V66a62.143,62.143,0,0,1,27.069,8.038,56.155,56.155,0,0,1,5.708-7.819" transform="translate(-13.749 6.073)" fill="#ffb600"/>
      <path id="Tracé_12" data-name="Tracé 12" d="M42.892,71.257A58.594,58.594,0,0,0,17.7,63.72V76.668a45.349,45.349,0,0,1,21.2,6.708,41.675,41.675,0,0,1,3.988-12.182" transform="translate(-13.744 12.263)" fill="#ffb600"/>
      <path id="Tracé_13" data-name="Tracé 13" d="M60.92,58.746c1.079.829,2.158,1.673,3.128,2.518,5.02-2.455,9.789-4.691,13.917-6.505A120.315,120.315,0,0,1,98.575,17.65H82.14A155.783,155.783,0,0,0,61.311,57.291Z" transform="translate(10.622 -13.709)" fill="#ffb600"/>
      <path id="Tracé_14" data-name="Tracé 14" d="M84.571,55.8A119.83,119.83,0,0,0,66.353,44.039h-.094c-2.987-1.564-6.036-3.018-9.164-4.316A117.892,117.892,0,0,0,17.72,30.81V44.086A100.752,100.752,0,0,1,71.654,62.851C75.86,60.4,80.27,58.035,84.6,55.83" transform="translate(-13.732 -6.29)" fill="#ffb600"/>
      <path id="Tracé_15" data-name="Tracé 15" d="M93.28,36.945a5.973,5.973,0,0,1,1.845-1.157,7.021,7.021,0,0,1,6.255.782,14.074,14.074,0,0,1,4.144,3.5l3.346-1.329v-.36a55.075,55.075,0,0,1,16.06-20.7H107.979a75.061,75.061,0,0,0-14.7,19.265" transform="translate(28.865 -13.692)" fill="#ffb600"/>
      <path id="Tracé_16" data-name="Tracé 16" d="M106.49,36.728l32.4-12.745V17.65H123.957A53.372,53.372,0,0,0,106.49,36.728" transform="translate(36.312 -13.709)" fill="#ffb600"/>
      <path id="Tracé_17" data-name="Tracé 17" d="M79.238,50.8c1.736-.735,2.94-1.22,3.5-1.439A7.365,7.365,0,0,1,86.4,45.3a6.365,6.365,0,0,1,4.238-.954,6.583,6.583,0,0,1,.453-2.705,7.318,7.318,0,0,1,5.88-3.956,6.724,6.724,0,0,1,1.939,0,72.871,72.871,0,0,1,13.745-20H95.735A112.872,112.872,0,0,0,75,52.583l4.269-1.814" transform="translate(18.559 -13.692)" fill="#ffb600"/>
      <path id="Tracé_18" data-name="Tracé 18" d="M31.717,33.807C33.891,28.271,36.408,22.86,39,17.7H17.69V34.276A124.946,124.946,0,0,1,31,35.668Z" transform="translate(-13.749 -13.681)" fill="#ffb600"/>
      <path id="Tracé_19" data-name="Tracé 19" d="M28.66,36.274A121.974,121.974,0,0,1,42.734,39.9l.3-.751a189.774,189.774,0,0,1,10.712-21.5H37.12a177.447,177.447,0,0,0-8.022,17.5Z" transform="translate(-7.565 -13.709)" fill="#ffb600"/>
      <path id="Tracé_20" data-name="Tracé 20" d="M40,41.122c2.017.719,4.034,1.564,6.02,2.314Q49.758,45,53.354,46.8l.141-.391A149.839,149.839,0,0,1,68.3,17.65H51.791A185.35,185.35,0,0,0,40.219,40.606Z" transform="translate(-1.172 -13.709)" fill="#ffb600"/>
      <path id="Tracé_21" data-name="Tracé 21" d="M50.75,48.581A124.259,124.259,0,0,1,63.26,56.4v-.156A160.815,160.815,0,0,1,83.182,17.65H66.857a145.274,145.274,0,0,0-15.81,30.087Z" transform="translate(4.888 -13.709)" fill="#ffb600"/>
      <path id="Tracé_22" data-name="Tracé 22" d="M131.568,61.784a2.079,2.079,0,0,1-.438,0,2,2,0,0,1-1.923-1.564c-2.6-12.619-4.519-19.265-6.568-23.112a17.2,17.2,0,0,0-2.455-3.315,11.3,11.3,0,0,0-2.08-1.564,3.284,3.284,0,0,0-2.815-.516,3.8,3.8,0,0,0-1.861,2.158h0c6.4,8.429,9.664,27.241,10.055,29.711a1.986,1.986,0,0,1-1.658,2.3,1.561,1.561,0,0,1-.375,0,2,2,0,0,1-1.923-1.673c-1.157-6.959-5.379-25.724-11.212-29.821a2.815,2.815,0,0,0-2.236-.626c-1.564.3-2.6.829-2.924,1.564-.7,1.72,1.063,4.691,1.11,4.926a29.4,29.4,0,0,1,1.955,3.393c.235.438.438.829.61,1.11,2.252,3.69,6.443,16.482,6.036,23.581a2,2,0,0,1-4-.141c.344-6.052-3.456-17.968-5.457-21.267-.2-.344-.469-.813-.751-1.376-.876-1.689-2.33-4.535-3.988-5.02a2.236,2.236,0,0,0-1.83.391c-2.565,1.564-2.737,1.923.61,8.835.844,1.767,1.814,3.769,2.862,6.177,5.692,13.12.094,27.334-.141,27.929a2.017,2.017,0,0,1-1.908,1.267,2.284,2.284,0,0,1-.7-.156,1.986,1.986,0,0,1-1.11-2.611,40.8,40.8,0,0,0,2.361-13.245c-.156-.156-.141-.391-.235-.61A3.769,3.769,0,0,0,95.7,66.272c-1.345,0-2.393,1.188-3.128,2.283C82.075,86.147,81.153,87.648,72.239,102.066l-3.378,5.473c-2.533,4.113-5.489,6.255-8.319,6.255H60.12a24.438,24.438,0,0,0,1.095,2.783c.844,1.751,1.564,3.315,2.33,4.691a44.141,44.141,0,0,1,3.128,7.115c3.128-1.251,48.273-19.641,61.6-35.013C141.06,78.61,142.78,62.1,133.382,44.348c-2-3.769-4.113-4.832-5.536-5.067a146.5,146.5,0,0,1,5.176,20.157,1.986,1.986,0,0,1-1.564,2.361" transform="translate(10.171 -5.848)" fill="#ffb600"/>
      <path id="Tracé_23" data-name="Tracé 23" d="M97.377,123.369a2.566,2.566,0,0,0,.876-.344,1.94,1.94,0,0,0,.626-.657,2,2,0,0,0,.235-.985,1.8,1.8,0,0,0-.266-1,1.845,1.845,0,0,0-.672-.626,3.485,3.485,0,0,0-.938-.313,6.019,6.019,0,0,0-1.032-.094H93.28v4.144h3.128a4,4,0,0,0,.97-.109" transform="translate(28.865 43.625)" fill="#046a38"/>
      <path id="Tracé_24" data-name="Tracé 24" d="M155.332,86.812C140.977,103.372,93.986,122.2,92,122.982l-1.157.438a7.537,7.537,0,0,1-3.722,4.066,6.583,6.583,0,0,1-3.55,1.016,4.241,4.241,0,0,1-.625,0,6.255,6.255,0,0,1-.532,2.737,7.3,7.3,0,0,1-5.864,3.956,7.821,7.821,0,0,1-1.329.109,6.975,6.975,0,0,1-3.722-1.251,7.209,7.209,0,0,1-3.425,2.971,5.771,5.771,0,0,1-2.377.422,8.006,8.006,0,0,1-3.909-1.188,14.37,14.37,0,0,1-4.034-3.362L17.69,147.251V210.9H188.953V47.89L167.4,56.209c.235,10.79-3.784,21.017-12.072,30.6M35.579,150.926H39.77l-3.487,3.128H33.249Zm6.052,50.588H28.636V183.061h12.51v3.753H32.718v3.44h8.006v3.753H32.718v3.753h8.913Zm.923-26.1H28.793V155.961H42.1V159.9H33.109v3.612h8.522v3.941H33.109v3.956h9.476Zm19.828,26.1H57.065l-8.053-13.136h0v13.136h-4.1V183.061h5.536l7.819,12.823h0V183.061h4.066Zm5.067-26.1H55.7a12.837,12.837,0,0,1-4.253-.672,9.57,9.57,0,0,1-3.362-1.955,9.148,9.148,0,0,1-2.2-3.127,10.117,10.117,0,0,1-.813-4.191,9.727,9.727,0,0,1,.829-4.019,9.382,9.382,0,0,1,2.221-3.128,10.072,10.072,0,0,1,3.315-2.033,11.479,11.479,0,0,1,4.1-.735,11.15,11.15,0,0,1,4.1.751,10.119,10.119,0,0,1,3.315,2.049,9.383,9.383,0,0,1,2.221,3.128,9.6,9.6,0,0,1,.829,4,8.821,8.821,0,0,1-.235,2.033,7.819,7.819,0,0,1-.7,1.861,6.989,6.989,0,0,1-1.22,1.564,6.112,6.112,0,0,1-1.751,1.126h5.473Zm2.658-4.3a9.383,9.383,0,0,1-.516-3.128V155.961h4.316V167.7a4.691,4.691,0,0,0,.282,1.673A3.957,3.957,0,0,0,75,170.707a3.613,3.613,0,0,0,1.267.876,4.067,4.067,0,0,0,1.564.313,3.956,3.956,0,0,0,1.564-.313,3.691,3.691,0,0,0,1.251-.876,3.957,3.957,0,0,0,.813-1.329,4.691,4.691,0,0,0,.3-1.673V155.961h4.316v11.916A9.382,9.382,0,0,1,85.541,171a6.975,6.975,0,0,1-1.564,2.518A7.3,7.3,0,0,1,81.4,175.2a11.087,11.087,0,0,1-7.162,0A6.9,6.9,0,0,1,70.076,171M86.37,186.642H78.114V190.4h7.694v3.753H78.114v7.193H74.048V182.889H86.433Zm64.38-56.905h4.269v19.391H150.75Zm-1.142,26.115h4.316V171.3h8.116v3.941H149.734Zm-16.545-26.115h7.225a17.2,17.2,0,0,1,2.533.188,6.615,6.615,0,0,1,2.284.7,4.456,4.456,0,0,1,1.642,1.564,4.5,4.5,0,0,1,.641,2.533,4.082,4.082,0,0,1-.923,2.737,5.082,5.082,0,0,1-2.424,1.564h0a5.487,5.487,0,0,1,1.736.532,4.849,4.849,0,0,1,1.345,1.016,4.3,4.3,0,0,1,.86,1.439,4.972,4.972,0,0,1,.3,1.751,4.691,4.691,0,0,1-.657,2.565A5.176,5.176,0,0,1,146,148.142a7.552,7.552,0,0,1-2.346.907,13.258,13.258,0,0,1-2.58.266h-7.944Zm-11.978,26.224,8.522,19.391h-4.863l-1.689-4.113h-7.6l-1.564,4.113H109.2l8.319-19.391Zm-25.13,0h15.481v3.784h-5.583v15.638h-4.316V159.745H95.956Zm-6.458,0h4.316v19.391H89.5Zm9.8,45.49L95.44,194.07H93.423v7.381H89.357V183H96.5a12.312,12.312,0,0,1,2.674.266,6.254,6.254,0,0,1,2.221.923,4.394,4.394,0,0,1,1.564,1.72,5.754,5.754,0,0,1,.563,2.69,5.379,5.379,0,0,1-1.032,3.331,4.582,4.582,0,0,1-2.971,1.736l4.691,7.819Zm20.892,0-1.564-3.909h-7.209l-1.564,3.909H105.4L113.392,183h3.3l8.038,18.452Zm23.941,0h-5.317l-8.053-13.073h0v13.136H126.7V183.061h5.52l7.819,12.823h0V183.061H144.1Zm.438-27.272a7.632,7.632,0,0,1-2.361.891,12.512,12.512,0,0,1-2.611.281h-8.022V155.961h7.3a19.932,19.932,0,0,1,2.549.172,7.162,7.162,0,0,1,2.314.719,4.347,4.347,0,0,1,1.658,1.564,4.425,4.425,0,0,1,.641,2.549,4.066,4.066,0,0,1-.923,2.721,5.067,5.067,0,0,1-2.455,1.564h0a5.6,5.6,0,0,1,1.751.532,4.692,4.692,0,0,1,1.36,1.016,4.331,4.331,0,0,1,.876,1.439,4.972,4.972,0,0,1,.3,1.751,4.691,4.691,0,0,1-.657,2.565,5.286,5.286,0,0,1-1.72,1.658m15.466,26.959a8.961,8.961,0,0,1-3.706.782,11.351,11.351,0,0,1-3.988-.672,9.164,9.164,0,0,1-3.128-1.939,8.758,8.758,0,0,1-2.064-3.128,11.134,11.134,0,0,1,0-8.038,8.757,8.757,0,0,1,2.064-3.127,9.162,9.162,0,0,1,3.128-1.939,11.353,11.353,0,0,1,3.988-.672,10.123,10.123,0,0,1,1.642.141,8.982,8.982,0,0,1,1.658.453,7.273,7.273,0,0,1,1.564.829,6.6,6.6,0,0,1,1.36,1.282l-3.128,2.549a3.941,3.941,0,0,0-1.47-1.11,4.911,4.911,0,0,0-2.033-.391,5.081,5.081,0,0,0-2.127.438,5.238,5.238,0,0,0-1.689,1.235,6.019,6.019,0,0,0-1.126,1.892,6.958,6.958,0,0,0-.407,2.377,6.847,6.847,0,0,0,.407,2.393,6.256,6.256,0,0,0,1.11,1.877,4.958,4.958,0,0,0,1.658,1.235,4.771,4.771,0,0,0,2.033.547,4.691,4.691,0,0,0,2.221-.516,4.442,4.442,0,0,0,1.564-1.454l3.378,2.518a6.881,6.881,0,0,1-2.971,2.424m17.2-37.624v3.941H168.7v3.956h9.476v3.941H164.37V155.961h13.308V159.9H168.7v3.612Zm1.079,37.937h-13.01V183.014h12.51v3.753h-8.476v3.44h8.006v3.753h-8.006v3.753h8.945Zm-5.817-71.385a9.554,9.554,0,0,1,3.315,2.048,9.039,9.039,0,0,1,2.174,3.128,11.791,11.791,0,0,1,0,8.444,9.1,9.1,0,0,1-2.174,3.221,9.524,9.524,0,0,1-3.315,2.033,12.51,12.51,0,0,1-8.366,0,9.742,9.742,0,0,1-3.331-2.033,9.384,9.384,0,0,1-2.174-3.221,11.791,11.791,0,0,1,0-8.444,9.241,9.241,0,0,1,2.174-3.128,9.773,9.773,0,0,1,3.331-2.048,12.792,12.792,0,0,1,8.366,0" transform="translate(-13.749 3.339)" fill="#046a38"/>
      <path id="Tracé_25" data-name="Tracé 25" d="M112.716,46.478a53.84,53.84,0,0,1,6.161,18.765l21.893-8.429V24.46L103.24,39.222c2.815.094,6.615,1.72,9.539,7.256" transform="translate(34.48 -9.87)" fill="#046a38"/>
      <path id="Tracé_26" data-name="Tracé 26" d="M72.7,113.124c-5.551-11.6-1.235-24.051.188-28.148.125-.344.219-.641.3-.86A2,2,0,1,1,77,85.337a3.836,3.836,0,0,1-.328.954,40.314,40.314,0,0,0-2.6,16.826c.375.688.938,1.47,1.564,1.564,1.016,0,2.94-1.251,4.863-4.363l3.362-5.473C92.735,80.458,93.658,78.956,104.2,61.4c2.33-3.925,5.223-4.347,6.74-4.238a6.38,6.38,0,0,1,2.314.625,25.473,25.473,0,0,0-1.642-5.364c-1.016-2.33-1.955-4.3-2.783-6.036a42.974,42.974,0,0,1-2.471-5.723l-2.189.907c-9.727,4.05-34.043,14.7-49.571,25.6A55.342,55.342,0,0,0,44.6,75.594c-12.792,14.762-14.512,31.275-5.113,49.024,2.768,5.285,5.082,5.708,5.723,5.708a140.739,140.739,0,0,1-5.395-20.751,2.017,2.017,0,1,1,3.941-.813c4.316,21.079,6.8,25.521,11.087,28.007a3.284,3.284,0,0,0,2.815.516,3.831,3.831,0,0,0,1.861-2.158h0C53.156,126.7,49.9,107.87,49.5,105.493a2.017,2.017,0,0,1,3.972-.657c1.126,6.9,5.364,25.708,11.181,29.805a2.752,2.752,0,0,0,2.252.61,3.738,3.738,0,0,0,2.909-1.564c.8-1.564-1.048-4.691-1.11-4.926a29.4,29.4,0,0,1-1.955-3.393l-.594-1.126c-2.267-3.737-6.458-16.513-6.052-23.628a2.017,2.017,0,1,1,4.019.235c-.36,6.052,3.44,17.968,5.458,21.252.2.344.454.829.735,1.376.876,1.7,2.346,4.551,4,5.02a2.189,2.189,0,0,0,1.83-.391c2.862-1.689,2.784-2.455-1.095-10.164-.7-1.407-1.564-2.987-2.346-4.691" transform="translate(-4.821 -0.737)" fill="#046a38"/>
      <path id="Tracé_27" data-name="Tracé 27" d="M78.45,143.5h4.519L80.7,137.76Z" transform="translate(20.504 54.003)" fill="#046a38"/>
    </g>
  </g>
</svg>
